<?xml version="1.0" encoding="UTF-8" standalone="no"?><!DOCTYPE svg PUBLIC "-//W3C//DTD SVG 1.1//EN" "http://www.w3.org/Graphics/SVG/1.1/DTD/svg11.dtd"><svg width="100%" height="100%" viewBox="0 0 40 40" version="1.1" xmlns="http://www.w3.org/2000/svg" xmlns:xlink="http://www.w3.org/1999/xlink" xml:space="preserve" xmlns:serif="http://www.serif.com/" style="fill-rule:evenodd;clip-rule:evenodd;stroke-linejoin:round;stroke-miterlimit:2;"><path d="M31.19,9.612c-2.114,-0.99 -4.351,-1.693 -6.651,-2.091c-0.286,0.518 -0.621,1.215 -0.852,1.769c-2.48,-0.373 -4.937,-0.373 -7.372,0c-0.23,-0.554 -0.573,-1.251 -0.862,-1.769c-2.302,0.399 -4.541,1.103 -6.656,2.096c-4.21,6.361 -5.351,12.564 -4.78,18.679c2.792,2.085 5.497,3.351 8.157,4.18c0.661,-0.909 1.246,-1.872 1.748,-2.878c-0.956,-0.363 -1.876,-0.811 -2.752,-1.338c0.231,-0.171 0.456,-0.349 0.675,-0.534c5.305,2.481 11.069,2.481 16.31,-0c0.22,0.184 0.445,0.362 0.675,0.534c-0.877,0.528 -1.8,0.977 -2.757,1.341c0.505,1.01 1.088,1.974 1.747,2.878c2.663,-0.829 5.371,-2.096 8.163,-4.183c0.67,-7.089 -1.143,-13.235 -4.793,-18.685l0,0.001Zm-16.546,14.923c-1.592,0 -2.898,-1.487 -2.898,-3.297c-0,-1.81 1.278,-3.3 2.898,-3.3c1.621,0 2.927,1.487 2.899,3.3c0.002,1.81 -1.278,3.297 -2.899,3.297Zm10.712,0c-1.593,0 -2.899,-1.487 -2.899,-3.297c0,-1.81 1.278,-3.3 2.899,-3.3c1.62,0 2.926,1.487 2.898,3.3c0,1.81 -1.278,3.297 -2.898,3.297Z" style="fill:none;fill-rule:nonzero;stroke:#6680ff;stroke-width:2px;"/></svg>