<?xml version="1.0" encoding="UTF-8" standalone="no"?><!DOCTYPE svg PUBLIC "-//W3C//DTD SVG 1.1//EN" "http://www.w3.org/Graphics/SVG/1.1/DTD/svg11.dtd"><svg width="100%" height="100%" viewBox="0 0 40 40" version="1.1" xmlns="http://www.w3.org/2000/svg" xmlns:xlink="http://www.w3.org/1999/xlink" xml:space="preserve" xmlns:serif="http://www.serif.com/" style="fill-rule:evenodd;clip-rule:evenodd;stroke-linejoin:round;stroke-miterlimit:2;"><path d="M20,8.738c3.668,0 4.102,0.014 5.551,0.08c1.339,0.061 2.067,0.285 2.551,0.473c0.641,0.25 1.098,0.547 1.579,1.028c0.481,0.481 0.778,0.938 1.028,1.579c0.188,0.484 0.412,1.212 0.473,2.551c0.066,1.449 0.08,1.883 0.08,5.551c-0,3.668 -0.014,4.102 -0.08,5.551c-0.061,1.339 -0.285,2.067 -0.473,2.551c-0.25,0.641 -0.547,1.098 -1.028,1.579c-0.481,0.481 -0.938,0.779 -1.579,1.028c-0.484,0.188 -1.212,0.412 -2.551,0.473c-1.449,0.066 -1.883,0.08 -5.551,0.08c-3.668,-0 -4.103,-0.014 -5.551,-0.08c-1.339,-0.061 -2.067,-0.285 -2.551,-0.473c-0.641,-0.249 -1.098,-0.547 -1.579,-1.028c-0.481,-0.481 -0.779,-0.938 -1.028,-1.579c-0.188,-0.484 -0.412,-1.212 -0.473,-2.551c-0.066,-1.449 -0.08,-1.883 -0.08,-5.551c0,-3.668 0.014,-4.102 0.08,-5.551c0.061,-1.339 0.285,-2.067 0.473,-2.551c0.249,-0.641 0.547,-1.098 1.028,-1.579c0.481,-0.481 0.938,-0.778 1.579,-1.028c0.484,-0.188 1.212,-0.412 2.551,-0.473c1.449,-0.066 1.883,-0.08 5.551,-0.08m0,-2.475c-3.731,0 -4.199,0.016 -5.664,0.083c-1.462,0.067 -2.461,0.299 -3.334,0.638c-0.904,0.351 -1.67,0.821 -2.433,1.585c-0.764,0.763 -1.234,1.529 -1.585,2.433c-0.339,0.874 -0.571,1.872 -0.638,3.334c-0.067,1.465 -0.083,1.933 -0.083,5.664c0,3.731 0.016,4.199 0.083,5.664c0.067,1.462 0.299,2.461 0.638,3.334c0.351,0.904 0.821,1.67 1.585,2.433c0.763,0.764 1.529,1.234 2.433,1.585c0.874,0.339 1.872,0.571 3.334,0.638c1.465,0.067 1.933,0.083 5.664,0.083c3.731,-0 4.199,-0.016 5.664,-0.083c1.462,-0.067 2.46,-0.299 3.334,-0.638c0.904,-0.351 1.67,-0.821 2.433,-1.585c0.764,-0.763 1.234,-1.529 1.585,-2.433c0.339,-0.874 0.571,-1.872 0.638,-3.334c0.067,-1.465 0.083,-1.933 0.083,-5.664c-0,-3.731 -0.016,-4.199 -0.083,-5.664c-0.067,-1.462 -0.299,-2.46 -0.638,-3.334c-0.351,-0.904 -0.821,-1.67 -1.585,-2.433c-0.763,-0.764 -1.529,-1.234 -2.433,-1.585c-0.874,-0.339 -1.872,-0.571 -3.334,-0.638c-1.465,-0.067 -1.933,-0.083 -5.664,-0.083Zm0,6.683c-3.896,-0 -7.054,3.158 -7.054,7.054c-0,3.896 3.158,7.054 7.054,7.054c3.896,0 7.054,-3.158 7.054,-7.054c0,-3.896 -3.158,-7.054 -7.054,-7.054Zm0,11.633c-2.529,-0 -4.579,-2.05 -4.579,-4.579c0,-2.529 2.05,-4.579 4.579,-4.579c2.529,0 4.579,2.05 4.579,4.579c-0,2.529 -2.05,4.579 -4.579,4.579Zm8.981,-11.912c0,0.911 -0.738,1.649 -1.648,1.649c-0.911,-0 -1.649,-0.738 -1.649,-1.649c0,-0.91 0.738,-1.648 1.649,-1.648c0.91,-0 1.648,0.738 1.648,1.648Z" style="fill:#6680ff;fill-rule:nonzero;"/></svg>