<?xml version="1.0" encoding="UTF-8" standalone="no"?><!DOCTYPE svg PUBLIC "-//W3C//DTD SVG 1.1//EN" "http://www.w3.org/Graphics/SVG/1.1/DTD/svg11.dtd"><svg width="100%" height="100%" viewBox="0 0 40 40" version="1.1" xmlns="http://www.w3.org/2000/svg" xmlns:xlink="http://www.w3.org/1999/xlink" xml:space="preserve" xmlns:serif="http://www.serif.com/" style="fill-rule:evenodd;clip-rule:evenodd;stroke-linejoin:round;stroke-miterlimit:2;"><g><path d="M36.849,11.43c-0.415,-1.536 -1.618,-2.739 -3.154,-3.154c-2.765,-0.755 -13.895,-0.755 -13.895,-0.755c0,0 -11.13,0.023 -13.896,0.777c-1.535,0.416 -2.738,1.619 -3.154,3.155c-0.836,4.913 -1.161,12.4 0.023,17.117c0.416,1.536 1.619,2.739 3.154,3.154c2.766,0.755 13.896,0.755 13.896,0.755c-0,-0 11.13,-0 13.895,-0.755c1.535,-0.415 2.739,-1.618 3.154,-3.154c0.882,-4.92 1.154,-12.403 -0.023,-17.14l0,-0Z" style="fill:none;fill-rule:nonzero;stroke:#6680ff;stroke-width:2px;"/><path d="M16.257,25.348l9.234,-5.348l-9.234,-5.348l0,10.696Z" style="fill:none;fill-rule:nonzero;stroke:#6680ff;stroke-width:2px;"/></g></svg>